<?xml version="1.0" standalone="no"?>
<!DOCTYPE svg PUBLIC "-//W3C//DTD SVG 20010904//EN"
 "http://www.w3.org/TR/2001/REC-SVG-20010904/DTD/svg10.dtd">
<svg version="1.0" xmlns="http://www.w3.org/2000/svg"
 width="570.000000pt" height="570.000000pt" viewBox="0 0 570.000000 570.000000"
 preserveAspectRatio="xMidYMid meet">
<metadata>
Created by potrace 1.11, written by Peter Selinger 2001-2013
</metadata>
<g transform="translate(0.000000,570.000000) scale(0.100000,-0.100000)"
fill="#000000" stroke="none">
<path d="M2520 5605 c-221 -28 -488 -92 -683 -164 -111 -41 -167 -68 -167 -78
0 -4 27 -40 61 -81 33 -40 59 -75 57 -76 -2 -1 -74 -19 -160 -40 -149 -37
-178 -49 -143 -62 8 -4 15 -11 16 -18 0 -6 126 -108 280 -226 217 -168 285
-215 306 -214 16 1 88 15 162 32 l133 31 62 -49 61 -48 72 18 c121 31 297 44
431 31 64 -7 145 -18 180 -26 35 -8 69 -15 77 -15 7 0 37 19 66 42 l53 42 131
-28 c71 -15 136 -28 142 -29 7 -1 139 97 294 218 265 207 279 220 255 228 -20
7 -24 12 -16 22 8 10 -16 19 -112 44 -68 18 -126 33 -130 34 -4 1 17 33 48 72
53 66 54 70 35 79 -12 5 -21 15 -21 22 0 24 -279 128 -477 178 -218 56 -328
68 -623 72 -196 2 -308 -1 -390 -11z m525 -390 c15 -44 35 -86 43 -92 13 -11
7 -13 -36 -13 -54 0 -62 5 -38 24 13 9 13 15 1 44 -13 30 -17 32 -64 32 -47 0
-52 -2 -67 -32 -15 -30 -15 -32 2 -45 16 -11 13 -13 -27 -12 -24 0 -38 3 -32
6 7 2 42 66 79 141 l65 137 23 -55 c12 -30 35 -91 51 -135z m-312 157 c-15
-11 -36 -58 -63 -142 -23 -68 -43 -126 -44 -127 -1 -2 -38 51 -80 117 -59 92
-83 120 -99 120 -38 1 2 17 58 23 43 6 48 5 32 -7 -16 -12 -14 -19 35 -99 29
-47 55 -84 57 -81 2 2 17 43 32 91 26 79 27 89 13 100 -14 10 -13 12 3 16 10
3 32 5 48 6 l30 1 -22 -18z m706 -154 c12 -62 21 -122 21 -132 0 -11 7 -28 17
-38 19 -21 13 -22 -46 -5 -31 10 -39 16 -28 20 20 8 22 47 5 69 -7 8 -32 20
-55 26 -35 8 -44 7 -56 -7 -25 -29 -29 -42 -17 -56 10 -12 9 -15 -6 -14 -11 1
-30 4 -44 8 -23 7 -24 8 -5 14 11 4 31 24 44 45 42 64 132 182 141 182 4 0 17
-51 29 -112z m-1154 47 l7 -40 -26 28 c-42 46 -122 30 -114 -24 3 -21 12 -26
78 -42 85 -21 110 -38 110 -78 0 -45 -38 -80 -93 -86 -26 -3 -47 -10 -47 -14
0 -24 -18 -4 -29 32 -15 49 -10 59 13 24 33 -50 139 -21 121 34 -6 20 -20 26
-123 51 -56 14 -79 48 -62 91 15 36 56 59 105 59 20 0 35 5 35 12 0 25 18 -8
25 -47z m1838 -127 c26 -6 47 -15 47 -19 0 -4 -121 -102 -269 -218 l-269 -210
-98 24 c-55 14 -108 25 -119 25 -41 1 -46 15 -13 40 30 22 32 23 77 6 25 -9
49 -16 53 -16 4 0 84 96 177 214 l171 214 97 -24 c54 -13 119 -29 146 -36z
m-2149 -158 c92 -115 172 -212 177 -216 9 -5 69 15 157 53 66 29 259 71 377
83 136 14 303 8 440 -15 105 -18 285 -66 285 -76 0 -4 -39 -38 -87 -76 l-86
-70 -76 20 c-65 17 -109 20 -301 20 -197 1 -235 -2 -305 -20 -44 -12 -84 -18
-90 -14 -5 4 -45 35 -87 69 -79 64 -108 80 -69 38 l23 -24 -59 -12 c-32 -6
-97 -22 -145 -34 l-86 -22 -277 215 c-207 161 -272 217 -261 223 21 12 245 66
277 67 21 1 51 -31 193 -209z m803 169 c14 -14 6 -39 -12 -39 -18 0 -28 17
-21 35 6 18 18 19 33 4z m400 -25 c8 -21 -13 -42 -28 -27 -13 13 -5 43 11 43
6 0 13 -7 17 -16z m-732 -34 c0 -8 -10 -16 -22 -18 -22 -3 -32 16 -16 32 12
11 38 2 38 -14z m1122 -56 c8 -21 -13 -42 -28 -27 -13 13 -5 43 11 43 6 0 13
-7 17 -16z"/>
<path d="M2932 5285 c-13 -26 -22 -49 -20 -50 6 -6 77 -9 81 -5 3 3 -5 27 -17
53 l-21 49 -23 -47z"/>
<path d="M3352 5230 l-33 -45 42 -12 c24 -7 44 -12 45 -10 2 1 -3 27 -9 57
l-12 54 -33 -44z"/>
<path d="M2790 4865 c-10 -13 -10 -19 5 -35 17 -19 17 -21 0 -40 -18 -20 -18
-21 -1 -38 16 -16 18 -16 32 2 13 19 15 19 27 2 8 -11 19 -15 30 -10 21 8 22
22 0 46 -15 17 -15 19 2 38 15 16 16 22 5 35 -12 14 -15 14 -32 -2 -19 -17
-20 -17 -33 0 -15 21 -19 21 -35 2z"/>
<path d="M2565 4840 c-7 -23 -16 -25 -33 -8 -8 8 -15 8 -27 -2 -14 -12 -14
-15 6 -36 17 -19 19 -26 9 -44 -10 -18 -9 -24 1 -31 20 -13 27 -11 38 9 8 14
13 15 30 5 16 -10 22 -9 32 3 10 12 9 19 -8 36 -18 17 -20 25 -10 45 9 19 8
26 -4 34 -21 13 -27 11 -34 -11z"/>
<path d="M3108 4849 c-15 -8 -15 -14 -6 -35 11 -23 9 -28 -10 -43 -20 -15 -21
-19 -8 -36 12 -17 16 -18 31 -5 15 12 19 12 31 -4 25 -35 57 -2 34 34 -7 11
-4 19 11 30 13 10 18 22 13 33 -7 19 -29 23 -40 6 -5 -8 -12 -5 -23 9 -12 16
-20 19 -33 11z"/>
<path d="M3022 2963 l-1161 -1548 71 -65 c230 -212 465 -310 813 -340 190 -17
422 7 595 62 433 138 730 483 858 998 l26 105 3 1154 4 1153 -24 -4 c-20 -4
-23 -1 -19 14 2 10 2 18 -1 18 -2 0 -527 -696 -1165 -1547z"/>
<path d="M1696 4181 c-3 -5 3 -11 14 -14 19 -5 20 -14 20 -127 0 -113 -1 -122
-20 -127 -40 -11 -18 -23 40 -23 l60 0 0 -79 c0 -73 -2 -79 -22 -86 -20 -7
-18 -9 15 -12 20 -2 52 -2 70 0 29 4 30 5 10 12 -20 6 -23 14 -23 66 0 58 0
59 29 59 18 0 34 -8 44 -22 15 -22 16 -21 16 32 0 53 -1 54 -16 33 -10 -15
-26 -23 -44 -23 -39 0 -38 26 1 33 19 4 37 18 49 38 18 29 19 30 26 10 10 -33
27 -25 23 11 -2 22 -9 34 -20 36 -10 2 -29 13 -42 25 l-24 21 21 28 c20 27 20
30 4 62 -12 26 -26 37 -54 45 -46 13 -170 14 -177 2z m181 -47 c14 -22 14 -26
-1 -49 -13 -20 -25 -25 -56 -25 l-40 0 0 49 c0 39 4 50 18 53 32 7 63 -4 79
-28z m-1 -119 c17 -13 14 -14 -38 -15 -45 0 -58 3 -58 15 0 20 69 20 96 0z
m-66 -65 c0 -20 -5 -30 -15 -30 -10 0 -15 10 -15 30 0 20 5 30 15 30 10 0 15
-10 15 -30z m80 11 c0 -10 -7 -24 -15 -31 -13 -11 -15 -8 -15 19 0 21 5 31 15
31 8 0 15 -8 15 -19z"/>
<path d="M1370 1588 c0 -15 5 -30 10 -33 13 -8 13 25 0 45 -8 12 -10 9 -10
-12z"/>
<path d="M4271 1552 c-23 -102 -78 -200 -161 -283 -82 -82 -136 -117 -250
-159 -54 -21 -70 -30 -57 -35 9 -4 17 -13 17 -20 0 -8 8 -16 18 -19 10 -4 33
-21 51 -40 l33 -34 -47 -27 c-25 -15 -99 -49 -163 -75 -330 -133 -694 -200
-1013 -186 -322 13 -572 85 -832 239 l-68 40 37 38 c21 22 46 41 56 45 24 7
23 24 -1 24 -23 0 -37 16 -19 23 7 2 -17 13 -54 24 -93 29 -189 85 -251 147
-62 62 -124 179 -140 266 -13 67 -21 75 -31 30 -18 -91 120 -293 258 -378 l60
-37 -57 -5 c-65 -6 -54 6 -174 -177 l-87 -133 -60 58 c-71 68 -134 112 -231
164 -38 21 -68 38 -65 38 3 1 68 20 145 43 l140 42 12 80 c11 74 16 163 8 140
-2 -5 -9 -56 -15 -111 l-12 -101 -146 -43 c-81 -23 -151 -46 -156 -50 -4 -4 2
-11 13 -15 12 -3 19 -10 16 -15 -3 -4 25 -22 61 -39 76 -36 179 -103 242 -159
l43 -38 -36 -68 c-38 -74 -42 -100 -22 -149 29 -67 202 -200 372 -284 189 -95
442 -172 685 -208 150 -23 565 -32 728 -15 444 45 872 211 1121 436 96 88 109
125 65 190 l-27 39 74 68 c88 81 181 145 274 188 l67 32 -28 13 c-16 7 -23 13
-15 13 32 2 -7 18 -137 56 l-137 40 -25 208 c-14 114 -28 207 -32 207 -4 0 -9
-12 -11 -27 l-4 -28 -2 30 c-3 57 -16 55 -30 -3z m38 -162 c32 -251 21 -224
94 -244 34 -9 100 -29 146 -43 l84 -25 -66 -33 c-85 -42 -180 -110 -263 -188
-36 -33 -68 -56 -73 -51 -4 5 -53 68 -109 141 -109 141 -114 145 -207 145 -25
0 -45 1 -45 4 0 2 28 17 63 32 90 42 180 113 233 184 49 67 97 161 109 216 4
18 8 32 10 30 2 -2 13 -78 24 -168z m-2537 -282 l53 -12 -69 -7 c-77 -8 -108
-28 -90 -57 29 -46 393 -241 538 -287 395 -126 887 -108 1366 52 219 72 420
177 420 218 0 17 -23 35 -67 51 l-38 15 57 -4 c31 -2 64 -9 72 -16 22 -19 257
-322 268 -347 24 -52 -57 -142 -233 -260 -225 -151 -510 -254 -844 -306 -116
-18 -185 -22 -400 -22 -277 -1 -385 8 -593 50 -307 61 -629 204 -819 363 -54
45 -72 93 -54 151 12 41 240 395 269 418 20 15 95 16 164 0z m25 -74 c-51 -50
-67 -51 -106 -10 -34 36 -5 51 108 55 l44 1 -46 -46z m2108 25 c24 -6 51 -19
59 -28 15 -16 14 -19 -8 -40 l-24 -23 -49 51 c-52 54 -49 58 22 40z"/>
<path d="M1750 810 c0 -5 5 -10 10 -10 6 0 15 -10 21 -23 8 -18 1 -43 -42
-140 -48 -109 -54 -118 -76 -114 -39 7 -26 -8 27 -30 50 -21 64 -21 33 2 -15
11 -13 21 27 114 26 58 47 95 51 88 4 -6 23 -75 44 -152 35 -134 41 -153 48
-144 2 2 28 62 59 134 50 115 59 131 83 135 26 5 24 7 -25 27 -48 20 -51 21
-36 4 17 -18 15 -24 -20 -108 -20 -48 -40 -91 -44 -95 -3 -5 -14 22 -23 60
-62 237 -56 221 -98 243 -22 11 -39 15 -39 9z"/>
<path d="M3856 785 c-3 -9 -18 -15 -36 -15 -41 0 -90 -47 -90 -87 0 -60 52
-93 148 -93 58 0 98 -36 81 -73 -12 -26 -47 -47 -79 -47 -10 0 -32 12 -49 26
-37 31 -38 24 -7 -35 17 -33 24 -40 29 -27 4 9 16 16 28 16 35 0 89 31 104 61
22 41 18 67 -13 98 -23 23 -38 29 -99 34 -86 7 -113 19 -113 52 0 53 84 74
124 30 35 -38 39 -30 11 25 -28 55 -30 57 -39 35z"/>
<path d="M3533 651 c-102 -36 -124 -48 -80 -47 20 1 27 -13 66 -127 43 -126
43 -128 25 -149 -19 -21 -19 -21 1 -14 11 4 64 24 118 43 l97 35 0 39 c0 47
-12 51 -25 7 -7 -24 -21 -38 -48 -51 -67 -31 -78 -28 -98 28 -23 66 -23 74 4
84 54 20 65 21 80 6 24 -23 25 -19 8 35 -9 27 -20 50 -24 50 -5 0 -5 -9 -2
-20 5 -17 -1 -24 -40 -41 -26 -12 -50 -17 -54 -12 -10 11 -44 104 -40 107 12
8 97 36 111 36 10 0 22 -9 28 -21 17 -30 22 -18 9 19 -6 18 -16 32 -22 31 -7
-1 -58 -18 -114 -38z"/>
<path d="M2100 618 c-113 -77 -112 -235 2 -294 41 -21 100 -17 138 9 55 37 74
70 78 140 3 52 0 67 -20 97 -46 68 -136 90 -198 48z m135 -14 c32 -21 45 -70
34 -129 -18 -95 -56 -145 -112 -145 -87 0 -118 93 -70 207 30 74 94 103 148
67z"/>
<path d="M3345 591 c-29 -6 -31 -10 -62 -129 -17 -68 -34 -126 -36 -129 -3 -3
-37 43 -76 101 -62 92 -75 106 -99 105 -15 0 -36 -4 -47 -9 -19 -8 -19 -9 2
-9 12 -1 24 -9 27 -18 12 -41 45 -257 40 -264 -3 -5 -12 -9 -20 -9 -8 0 -14
-4 -14 -8 0 -5 26 -4 58 2 31 6 48 12 37 14 -11 2 -24 7 -28 11 -7 7 -48 223
-43 229 2 1 38 -50 81 -115 54 -82 80 -112 85 -102 4 8 20 64 35 124 15 61 30
117 33 125 5 14 40 -161 41 -207 1 -13 -7 -24 -20 -28 -43 -14 -10 -14 52 -1
35 8 56 14 46 15 -24 1 -34 29 -55 159 -19 114 -19 114 1 133 22 20 17 22 -38
10z"/>
<path d="M2365 570 c44 -17 46 -30 30 -146 -18 -125 -28 -154 -52 -155 -22 -2
33 -16 66 -18 23 -1 24 0 6 13 -17 12 -18 19 -5 120 12 101 21 124 34 91 12
-31 148 -256 153 -252 2 3 13 65 24 139 23 159 23 158 51 158 39 0 5 17 -47
24 -49 6 -50 5 -27 -12 22 -17 22 -19 10 -115 -7 -53 -15 -97 -18 -97 -3 0
-38 56 -78 124 -74 126 -85 136 -142 135 -23 0 -23 -1 -5 -9z"/>
<path d="M2781 523 c-51 -26 -82 -80 -82 -146 0 -102 56 -167 144 -167 69 0
112 27 139 87 64 144 -67 292 -201 226z m124 -27 c69 -69 51 -239 -28 -265
-66 -22 -113 20 -124 109 -8 66 3 114 33 150 33 39 84 41 119 6z"/>
<path d="M1363 1515 c0 -22 2 -30 4 -17 2 12 2 30 0 40 -3 9 -5 -1 -4 -23z"/>
<path d="M1353 1435 c0 -22 2 -30 4 -17 2 12 2 30 0 40 -3 9 -5 -1 -4 -23z"/>
</g>
</svg>
